<svg version="1.1" xmlns="http://www.w3.org/2000/svg" xmlns:xlink="http://www.w3.org/1999/xlink" x="0px" y="0px"
	 viewBox="0 0 1024 1024" style="enable-background:new 0 0 20 20;" xml:space="preserve">
<g id="icomoon-ignore">
</g>
<path d="M0 308.37l41.594 54.544c0 0 85.77-67.608 114.36-33.802 28.588 33.802 137.736 441.956 174.17 517.246 31.8 66.030 119.518 153.32 215.714 90.982 96.136-62.34 415.84-335.286 473.066-657.616 57.18-322.226-384.72-254.726-431.53 26.010 116.99-70.236 179.436 28.538 119.57 140.372-59.758 111.724-114.36 184.592-142.952 184.592-28.538 0-50.49-74.768-83.188-205.446-33.798-135.102-33.592-378.46-174.116-350.87-132.518 26.012-306.688 233.988-306.688 233.988z"></path>
</svg>
